HIERARCHY
ROOT Hips
{
	OFFSET 0.00000 0.00000 0.00000
	CHANNELS 6 Xposition Yposition Zposition Zrotation Yrotation Xrotation 
	JOINT LHipJoint
	{
		OFFSET 0 0 0
		CHANNELS 3 Zrotation Yrotation Xrotation
		JOINT LeftUpLeg
		{
			OFFSET 1.62964 -1.40469 0.78906
			CHANNELS 3 Zrotation Yrotation Xrotation
			JOINT LeftLeg
			{
				OFFSET 2.29640 -6.30932 0.00000
				CHANNELS 3 Zrotation Yrotation Xrotation
				JOINT LeftFoot
				{
					OFFSET 2.29451 -6.30412 0.00000
					CHANNELS 3 Zrotation Yrotation Xrotation
					JOINT LeftToeBase
					{
						OFFSET 0.03611 -0.09921 1.56387
						CHANNELS 3 Zrotation Yrotation Xrotation
						End Site
						{
							OFFSET 0.00000 -0.00000 0.80291
						}
					}
				}
			}
		}
	}
	JOINT RHipJoint
	{
		OFFSET 0 0 0
		CHANNELS 3 Zrotation Yrotation Xrotation
		JOINT RightUpLeg
		{
			OFFSET -1.73712 -1.40469 0.78906
			CHANNELS 3 Zrotation Yrotation Xrotation
			JOINT RightLeg
			{
				OFFSET -2.28137 -6.26801 0.00000
				CHANNELS 3 Zrotation Yrotation Xrotation
				JOINT RightFoot
				{
					OFFSET -2.28681 -6.28298 0.00000
					CHANNELS 3 Zrotation Yrotation Xrotation
					JOINT RightToeBase
					{
						OFFSET -0.15927 -0.43759 1.61103
						CHANNELS 3 Zrotation Yrotation Xrotation
						End Site
						{
							OFFSET -0.00000 -0.00000 0.84630
						}
					}
				}
			}
		}
	}
	JOINT LowerBack
	{
		OFFSET 0 0 0
		CHANNELS 3 Zrotation Yrotation Xrotation
		JOINT Spine
		{
			OFFSET -0.04227 2.04338 -0.00225
			CHANNELS 3 Zrotation Yrotation Xrotation
			JOINT Spine1
			{
				OFFSET -0.02148 2.04482 -0.04273
				CHANNELS 3 Zrotation Yrotation Xrotation
				JOINT Neck
				{
					OFFSET 0 0 0
					CHANNELS 3 Zrotation Yrotation Xrotation
					JOINT Neck1
					{
						OFFSET 0.09180 1.44629 0.19359
						CHANNELS 3 Zrotation Yrotation Xrotation
						JOINT Head
						{
							OFFSET 0.00887 1.40645 0.14750
							CHANNELS 3 Zrotation Yrotation Xrotation
							End Site
							{
								OFFSET -0.00669 1.50671 0.03707
							}
						}
					}
				}
				JOINT LeftShoulder
				{
					OFFSET 0 0 0
					CHANNELS 3 Zrotation Yrotation Xrotation
					JOINT LeftArm
					{
						OFFSET 2.17674 1.86763 -0.06520
						CHANNELS 3 Zrotation Yrotation Xrotation
						JOINT LeftForeArm
						{
							OFFSET 4.65776 -0.00000 0.00000
							CHANNELS 3 Zrotation Yrotation Xrotation
							JOINT LeftHand
							{
								OFFSET 3.55539 -0.00000 0.00000
								CHANNELS 3 Zrotation Yrotation Xrotation
								JOINT LeftFingerBase
								{
									OFFSET 0 0 0
									CHANNELS 3 Zrotation Yrotation Xrotation
									JOINT LeftHandIndex1
									{
										OFFSET 0.70726 -0.00000 0.00000
										CHANNELS 3 Zrotation Yrotation Xrotation
										End Site
										{
											OFFSET 0.57022 -0.00000 0.00000
										}
									}
								}
								JOINT LThumb
								{
									OFFSET 0 0 0
									CHANNELS 3 Zrotation Yrotation Xrotation
									End Site
									{
										OFFSET 0.57892 -0.00000 0.57892
									}
								}
							}
						}
					}
				}
				JOINT RightShoulder
				{
					OFFSET 0 0 0
					CHANNELS 3 Zrotation Yrotation Xrotation
					JOINT RightArm
					{
						OFFSET -2.80694 1.55459 -0.32496
						CHANNELS 3 Zrotation Yrotation Xrotation
						JOINT RightForeArm
						{
							OFFSET -4.71925 -0.00000 -0.00000
							CHANNELS 3 Zrotation Yrotation Xrotation
							JOINT RightHand
							{
								OFFSET -3.56990 -0.00000 0.00000
								CHANNELS 3 Zrotation Yrotation Xrotation
								JOINT RightFingerBase
								{
									OFFSET 0 0 0
									CHANNELS 3 Zrotation Yrotation Xrotation
									JOINT RightHandIndex1
									{
										OFFSET -0.50776 -0.00000 0.00000
										CHANNELS 3 Zrotation Yrotation Xrotation
										End Site
										{
											OFFSET -0.40937 -0.00000 0.00000
										}
									}
								}
								JOINT RThumb
								{
									OFFSET 0 0 0
									CHANNELS 3 Zrotation Yrotation Xrotation
									End Site
									{
										OFFSET -0.41562 -0.00000 0.41562
									}
								}
							}
						}
					}
				}
			}
		}
	}
}
MOTION
Frames: 13
Frame Time: .0083333
9.6213 13.4366 21.7894 -180.4970 -0.9127 -135.1430 0.0000 0.0000 0.0000 2.6341 -23.3285 -88.3515 15.5934 19.5279 77.0179 2.4934 -2.1763 -29.3237 3.9506 -12.0944 -36.0669 0.0000 0.0000 0.0000 -1.0055 25.2857 -86.7567 -14.7516 -19.3264 74.4874 -5.1242 2.4181 -42.5463 -2.7355 10.2541 -29.8035 -4.3730 -1.3835 -8.3946 -0.0973 -1.5216 -0.9310 2.1775 -0.8591 3.8503 5.7788 -8.1243 -6.4066 -8.6355 -10.7296 -11.4301 -3.4333 -4.8033 -3.1495 -0.0000 -0.0000 0.0000 -69.1613 18.9837 35.8699 20.0220 -30.6689 -5.5426 -0.0000 -0.0000 0.7759 28.2739 -17.2977 -9.0861 -7.1250 0.0000 -0.0000 0.2250 10.5057 -0.1802 -0.0000 -0.0000 0.0000 85.0055 -19.9496 5.6246 -15.6368 25.0257 -3.4909 0.0000 0.0000 4.0856 -16.2048 -48.7945 12.3334 7.1250 -0.0000 -0.0000 48.9135 -75.5626 -36.9708
9.6230 13.2825 21.8026 -180.3660 -0.6529 -135.0810 0.0000 0.0000 0.0000 2.7970 -23.0362 -89.5947 16.2248 19.6548 78.9007 2.6496 -2.1927 -30.2549 3.5456 -11.5299 -34.0884 0.0000 0.0000 0.0000 -1.3523 25.5914 -88.1557 -15.4161 -19.4886 76.4869 -5.2340 1.9469 -43.1243 -2.9360 10.5907 -30.9115 -4.4789 -1.3200 -8.0130 -0.0476 -1.4326 -0.7725 2.3050 -0.8132 3.8000 5.7515 -8.0924 -6.5097 -8.6827 -10.6656 -11.8576 -3.4465 -4.7354 -3.2573 -0.0000 -0.0000 0.0000 -69.5390 18.4855 35.2639 19.9732 -30.6100 -5.5177 -0.0000 -0.0000 0.4526 28.6808 -17.5133 -9.3483 -7.1250 0.0000 -0.0000 0.4668 10.1973 -0.3768 -0.0000 -0.0000 0.0000 84.8947 -19.8729 5.9930 -15.7588 25.1925 -3.5427 0.0000 0.0000 3.6945 -16.1374 -48.5085 12.2287 7.1250 -0.0000 -0.0000 48.0308 -75.3756 -36.0731
9.6254 13.1301 21.8148 -180.2100 -0.3660 -135.0690 0.0000 0.0000 0.0000 2.9439 -22.6804 -90.7459 16.8485 19.7602 80.7501 2.7898 -3.1366 -30.8580 2.9901 -10.6790 -31.2046 0.0000 0.0000 0.0000 -1.5061 25.8663 -89.1592 -15.8674 -19.5855 77.8363 -5.2906 1.6429 -43.4357 -3.0838 10.8296 -31.7072 -4.5235 -1.1924 -7.5979 -0.1058 -1.2654 -0.6259 2.2946 -0.7270 3.7077 5.7392 -8.0459 -6.4495 -8.7065 -10.5920 -12.1521 -3.4494 -4.6744 -3.3502 -0.0000 0.0000 0.0000 -69.7092 17.7976 34.7925 19.7726 -30.3674 -5.4159 -0.0000 -0.0000 0.2539 29.1278 -17.6596 -9.5947 -7.1250 0.0000 -0.0000 0.7411 9.9566 -0.6019 -0.0000 0.0000 0.0000 85.0837 -19.7367 6.1555 -15.8841 25.3632 -3.5962 0.0000 0.0000 3.4677 -16.3086 -48.3482 12.3318 7.1250 -0.0000 -0.0000 47.3620 -75.3499 -35.5017
9.6278 12.9799 21.8446 -180.1240 -0.1647 -134.5760 0.0000 0.0000 0.0000 3.4122 -22.4122 -92.5924 17.5316 19.8533 82.7660 2.8892 -4.0399 -31.2456 2.4503 -9.7470 -28.1614 0.0000 0.0000 0.0000 -1.9813 25.9877 -90.7928 -16.3626 -19.6798 79.3102 -5.4145 1.5814 -43.9757 -3.0622 10.7951 -31.5920 -4.5252 -1.0967 -7.3404 -0.1857 -1.1581 -0.7747 2.2300 -0.6669 3.3990 5.7029 -8.0422 -6.2699 -8.6063 -10.5864 -12.1835 -3.4053 -4.6727 -3.3813 0.0000 -0.0000 0.0000 -69.9990 17.2844 34.0999 19.5939 -30.1499 -5.3259 -0.0000 -0.0000 0.3615 29.5127 -17.7154 -9.7731 -7.1250 0.0000 -0.0000 0.9848 9.8257 -0.8025 0.0000 -0.0000 0.0000 85.2744 -19.7231 6.5499 -16.0477 25.5853 -3.6666 0.0000 0.0000 3.1193 -16.5590 -48.2433 12.5061 7.1250 -0.0000 -0.0000 46.8016 -75.3858 -35.0756
9.6162 12.8584 21.8115 -179.7650 0.3915 -136.3520 0.0000 0.0000 0.0000 2.6807 -22.0176 -91.1010 17.8915 19.8931 83.8245 2.9467 -4.5666 -31.4761 2.1851 -9.2414 -26.5533 0.0000 0.0000 0.0000 -1.0657 26.6225 -89.0252 -16.6218 -19.7242 80.0792 -5.5084 1.4732 -44.3954 -2.9503 10.6142 -30.9894 -4.4134 -0.8303 -5.1889 -0.3233 -0.7995 -0.3121 2.0845 -0.4316 2.6464 5.8434 -8.1440 -6.2908 -8.5555 -10.7177 -12.4670 -3.4061 -4.7264 -3.4790 -0.0000 -0.0000 0.0000 -70.3685 16.8576 33.2986 19.4458 -29.9689 -5.2517 -0.0000 -0.0000 0.5929 29.8752 -17.8576 -9.9905 -7.1250 0.0000 -0.0000 1.2028 9.6008 -0.9856 -0.0000 -0.0000 0.0000 85.3672 -19.7524 7.3054 -16.2023 25.7942 -3.7336 0.0000 0.0000 2.6692 -17.2183 -48.2895 13.0260 7.1250 -0.0000 -0.0000 46.3600 -75.6691 -34.9643
9.6159 12.7172 21.8315 -179.8900 0.4662 -136.1210 0.0000 0.0000 0.0000 2.9979 -22.1032 -92.5376 18.4929 19.9455 85.5897 3.0202 -4.7616 -31.8524 2.3414 -9.5437 -27.5112 0.0000 0.0000 0.0000 -1.5097 26.5074 -90.3404 -17.1526 -19.8045 81.6486 -5.6947 2.0559 -45.0397 -2.9122 10.5516 -30.7820 -4.4543 -0.8375 -4.7410 -0.4435 -0.8271 -0.4167 1.9872 -0.4347 2.2880 6.0117 -8.1866 -6.2244 -8.5498 -10.7793 -12.6952 -3.4238 -4.7503 -3.5724 0.0000 -0.0000 0.0000 -70.8040 16.3982 32.2148 19.3464 -29.8468 -5.2021 -0.0000 -0.0000 1.0281 30.1624 -17.9499 -10.1539 -7.1250 0.0000 -0.0000 1.3773 9.4443 -1.1330 0.0000 -0.0000 0.0000 85.5744 -19.4428 7.7373 -16.2614 25.8737 -3.7593 0.0000 0.0000 2.5806 -17.8541 -48.1557 13.4934 7.1250 -0.0000 -0.0000 45.3421 -75.8384 -34.2789
9.6094 12.5719 21.8428 -179.9410 0.4592 -135.7760 0.0000 0.0000 0.0000 3.4709 -22.2270 -94.1095 19.0899 19.9801 87.3383 3.0888 -4.8485 -32.2158 2.6468 -10.1001 -29.3014 0.0000 0.0000 0.0000 -1.9477 26.3239 -92.0686 -17.8453 -19.8883 83.6889 -5.8400 1.6711 -45.7210 -2.9796 10.6620 -31.1483 -4.3194 -0.8507 -4.6652 -0.5422 -0.8517 -0.4703 1.8096 -0.4411 2.1885 5.9548 -8.2054 -5.9496 -8.4465 -10.7979 -12.9042 -3.3691 -4.7472 -3.6731 0.0000 0.0000 0.0000 -71.3246 15.7065 30.9414 19.1888 -29.6526 -5.1239 -0.0000 -0.0000 1.5984 30.4244 -18.0679 -10.3226 -7.1250 0.0000 -0.0000 1.5316 9.2628 -1.2656 0.0000 0.0000 0.0000 85.7699 -18.9239 8.0552 -16.2953 25.9194 -3.7741 0.0000 0.0000 2.6927 -17.7077 -47.4117 13.2284 7.1250 -0.0000 -0.0000 43.1116 -75.3236 -32.0390
9.6005 12.4302 21.8538 -179.9450 0.3952 -135.3940 0.0000 0.0000 0.0000 3.9860 -22.3082 -95.7754 19.7047 19.9979 89.1365 3.1502 -5.2145 -32.4927 2.6600 -10.1231 -29.3764 0.0000 0.0000 0.0000 -2.5705 26.1741 -94.3381 -18.8519 -19.9684 86.6416 -6.1108 2.1194 -46.7193 -2.9136 10.5539 -30.7897 -4.1030 -0.8662 -4.6232 -0.6013 -0.8841 -0.6079 1.6272 -0.4483 2.0209 5.7426 -8.1709 -5.6727 -8.3893 -10.7446 -12.9236 -3.3083 -4.7107 -3.7048 0.0000 -0.0000 0.0000 -71.8416 14.8724 29.7985 18.9199 -29.3190 -4.9916 -0.0000 -0.0000 2.1300 30.7438 -18.3449 -10.6031 -7.1250 0.0000 -0.0000 1.7015 8.8903 -1.4187 0.0000 -0.0000 0.0000 85.8529 -18.3812 8.5168 -16.2452 25.8520 -3.7523 0.0000 0.0000 2.9505 -17.4645 -46.4937 12.8543 7.1250 -0.0000 -0.0000 40.6479 -74.6326 -29.5262
9.5928 12.2923 21.8664 -179.8950 0.3466 -134.9950 0.0000 0.0000 0.0000 4.4554 -22.2109 -97.5294 20.3819 19.9965 91.1165 3.2529 -6.0402 -32.9265 2.4321 -9.7134 -28.0537 0.0000 0.0000 0.0000 -3.0618 26.1541 -95.8582 -19.3412 -19.9896 88.0734 -6.2120 2.1393 -47.1190 -2.9621 10.6334 -31.0532 -3.8530 -0.8724 -4.5708 -0.6785 -0.9048 -0.7744 1.4086 -0.4485 1.8162 5.6034 -8.1398 -5.6082 -8.3053 -10.6969 -12.7907 -3.2609 -4.6932 -3.6597 0.0000 -0.0000 0.0000 -72.2596 13.9702 28.8398 18.6679 -29.0040 -4.8688 -0.0000 -0.0000 2.4253 31.0962 -18.4775 -10.8220 -7.1250 0.0000 -0.0000 1.9103 8.6719 -1.6013 0.0000 -0.0000 0.0000 85.9688 -17.6013 8.8418 -15.9903 25.5075 -3.6418 0.0000 0.0000 3.4242 -18.0876 -45.3122 13.0726 7.1250 -0.0000 -0.0000 36.8053 -74.0447 -26.1204
9.5893 12.1679 21.8856 -179.9970 0.2705 -134.6960 0.0000 0.0000 0.0000 4.8838 -22.3657 -98.8336 20.8239 19.9837 92.4097 3.3210 -7.0628 -33.1657 1.9997 -8.8655 -25.3754 0.0000 0.0000 0.0000 -3.4757 25.9060 -97.2073 -19.8460 -19.9994 89.5497 -6.3191 2.3594 -47.4981 -2.9069 10.5428 -30.7531 -3.7684 -0.9021 -4.3494 -0.7966 -0.9543 -0.8686 1.2408 -0.4655 1.5948 5.5990 -8.1131 -5.5500 -8.2563 -10.6571 -12.8332 -3.2439 -4.6726 -3.6763 -0.0000 -0.0000 0.0000 -72.5840 12.7892 28.0953 18.4142 -28.6843 -4.7464 -0.0000 -0.0000 2.4896 31.5041 -18.2460 -10.8628 -7.1250 0.0000 -0.0000 2.2039 8.8527 -1.8399 -0.0000 -0.0000 0.0000 86.1570 -16.5997 9.3467 -15.8423 25.3064 -3.5783 0.0000 0.0000 3.5793 -19.0677 -43.8283 13.4612 7.1250 -0.0000 -0.0000 32.1211 -73.2927 -22.1209
9.5880 12.0584 21.8979 -180.1780 0.2877 -134.7190 0.0000 0.0000 0.0000 4.9212 -22.4727 -99.6475 21.2524 19.9624 93.6639 3.3834 -8.2340 -33.3852 1.4468 -7.6036 -21.5164 0.0000 0.0000 0.0000 -3.8152 25.7069 -98.0691 -20.3345 -19.9973 90.9780 -6.4383 2.4723 -47.9446 -2.8944 10.5221 -30.6846 -3.9156 -0.8932 -3.8959 -0.9312 -0.9541 -0.8446 1.1910 -0.4616 1.3659 5.6588 -8.0674 -5.2044 -8.2892 -10.6009 -13.1460 -3.2483 -4.6250 -3.8272 0.0000 0.0000 0.0000 -72.9513 11.4245 27.3634 18.1034 -28.2894 -4.5982 -0.0000 -0.0000 2.6591 31.9292 -17.7487 -10.7559 -7.1250 0.0000 -0.0000 2.5460 9.3329 -2.1016 0.0000 0.0000 0.0000 86.3711 -15.6246 10.2670 -16.0720 25.6182 -3.6771 0.0000 0.0000 3.1641 -19.8273 -42.7853 13.7615 7.1250 -0.0000 -0.0000 28.9719 -72.7361 -19.5142
9.5882 11.9597 21.9062 -180.2680 0.2914 -134.7750 0.0000 0.0000 0.0000 5.0033 -22.5321 -100.2845 21.6363 19.9357 94.7891 3.4321 -8.9108 -33.5907 1.2167 -6.9969 -19.7061 0.0000 0.0000 0.0000 -4.0685 25.6275 -98.7671 -21.0472 -19.9737 93.0630 -6.8170 3.7156 -49.1796 -2.5479 9.9244 -28.7324 -4.0865 -0.8619 -3.5069 -0.9835 -0.9250 -0.8108 1.2393 -0.4452 1.1833 5.9792 -8.3722 -5.4223 -8.0477 -10.9942 -13.4201 -3.2164 -4.8281 -3.9116 0.0000 0.0000 0.0000 -73.3757 10.0163 26.7465 17.8034 -27.9047 -4.4569 -0.0000 -0.0000 2.6998 32.4762 -17.4780 -10.8223 -7.1250 0.0000 -0.0000 2.9368 9.5334 -2.4131 0.0000 0.0000 0.0000 86.4455 -14.5820 11.3003 -16.3145 25.9452 -3.7825 0.0000 0.0000 2.7523 -19.3484 -44.6507 13.8624 7.1250 -0.0000 -0.0000 33.7340 -74.0244 -23.8026
9.5910 11.8708 21.9143 -180.2500 0.1782 -134.8350 0.0000 0.0000 0.0000 5.2484 -22.5230 -100.8901 21.9855 19.9052 95.8140 3.4594 -9.3471 -33.7067 1.1168 -6.7135 -18.8693 0.0000 0.0000 0.0000 -4.0033 25.6353 -99.3520 -21.1304 -19.9693 93.3067 -6.6571 1.7667 -48.9396 -3.2804 11.1357 -32.7390 -4.1339 -0.8357 -2.9566 -0.9497 -0.9233 -0.9156 1.3090 -0.4365 0.7686 6.0763 -8.3026 -5.5738 -8.2160 -10.9068 -13.4148 -3.2934 -4.7799 -3.8925 0.0000 0.0000 0.0000 -73.8001 8.8530 26.4115 17.6674 -27.7291 -4.3934 -0.0000 -0.0000 2.5035 33.0283 -17.6177 -11.1316 -7.1250 0.0000 -0.0000 3.2731 9.2621 -2.7082 0.0000 0.0000 0.0000 86.3713 -13.5692 12.3733 -16.4197 26.0864 -3.8286 0.0000 0.0000 2.5484 -19.6087 -45.5231 14.2625 7.1250 -0.0000 -0.0000 35.6761 -74.7668 -25.7903
